<svg width="189.192529296875px" height="100.4099609375px" xmlns="http://www.w3.org/2000/svg" viewBox="155.4037353515625 24.79501953125 189.192529296875 100.4099609375" style="background: rgba(0, 0, 0, 0);" preserveAspectRatio="xMidYMid"><defs><filter id="editing-extrusion" x="-100%" y="-100%" width="300%" height="300%"><feFlood result="color1" flood-color="#444"></feFlood><feConvolveMatrix order="8,8" divisor="1" kernelMatrix="1 0 0 0 0 0 0 0 0 1 0 0 0 0 0 0 0 0 1 0 0 0 0 0 0 0 0 1 0 0 0 0 0 0 0 0 1 0 0 0 0 0 0 0 0 1 0 0 0 0 0 0 0 0 1 0 0 0 0 0 0 0 0 1" in="SourceAlpha" result="extrude"></feConvolveMatrix><feComposite in="color1" in2="extrude" result="comp-extrude" operator="in"></feComposite><feOffset dx="4" dy="4" in="comp-extrude" result="offset-extrude"></feOffset><feMerge><feMergeNode in="offset-extrude"></feMergeNode><feMergeNode in="SourceGraphic"></feMergeNode></feMerge></filter></defs><g filter="url(#editing-extrusion)"><g transform="translate(188.10999941825867, 97.40500068664551)"><path d="M1.28-9.28L1.28-15.44L23.38-44.81L30.91-44.81L30.91-15.44L36.94-15.44L36.94-9.28L30.91-9.28L30.91 0L24.50 0L24.50-9.28L1.28-9.28ZM8.25-15.44L24.50-15.44L24.50-37.06L8.25-15.44ZM79.81-38.41L79.81-6.41L79.81-6.41Q79.81-5.09 79.31-3.92L79.31-3.92L79.31-3.92Q78.81-2.75 77.94-1.88L77.94-1.88L77.94-1.88Q77.06-1 75.89-0.50L75.89-0.50L75.89-0.50Q74.72 0 73.41 0L73.41 0L51 0L51 0Q49.69 0 48.52-0.50L48.52-0.50L48.52-0.50Q47.34-1 46.47-1.88L46.47-1.88L46.47-1.88Q45.59-2.75 45.09-3.92L45.09-3.92L45.09-3.92Q44.59-5.09 44.59-6.41L44.59-6.41L44.59-38.41L44.59-38.41Q44.59-39.72 45.09-40.89L45.09-40.89L45.09-40.89Q45.59-42.06 46.47-42.92L46.47-42.92L46.47-42.92Q47.34-43.78 48.52-44.30L48.52-44.30L48.52-44.30Q49.69-44.81 51-44.81L51-44.81L73.41-44.81L73.41-44.81Q74.72-44.81 75.89-44.30L75.89-44.30L75.89-44.30Q77.06-43.78 77.94-42.92L77.94-42.92L77.94-42.92Q78.81-42.06 79.31-40.89L79.31-40.89L79.31-40.89Q79.81-39.72 79.81-38.41L79.81-38.41ZM73.41-38.41L51-38.41L51-6.41L73.41-6.41L73.41-38.41ZM86.84-9.28L86.84-15.44L108.94-44.81L116.47-44.81L116.47-15.44L122.50-15.44L122.50-9.28L116.47-9.28L116.47 0L110.06 0L110.06-9.28L86.84-9.28ZM93.81-15.44L110.06-15.44L110.06-37.06L93.81-15.44Z" fill="#ccc"></path></g></g><style>text {
  font-size: 64px;
  font-family: Arial Black;
  dominant-baseline: central;
  text-anchor: middle;
}</style></svg>